<?xml version="1.0" standalone="no"?>
<!DOCTYPE svg PUBLIC "-//W3C//DTD SVG 20010904//EN"
 "http://www.w3.org/TR/2001/REC-SVG-20010904/DTD/svg10.dtd">
<svg version="1.0" xmlns="http://www.w3.org/2000/svg"
 width="1588.000000pt" height="1588.000000pt" viewBox="0 0 1588.000000 1588.000000"
 preserveAspectRatio="xMidYMid meet">
<metadata>
Created by potrace 1.14, written by Peter Selinger 2001-2017
</metadata>
<g transform="translate(0.000000,1588.000000) scale(0.100000,-0.100000)"
fill="#000000" stroke="none">
<path d="M9690 15644 c-62 -16 -205 -83 -235 -111 -11 -10 -37 -31 -57 -46
-40 -30 -139 -146 -169 -200 -47 -82 -95 -195 -110 -257 -4 -19 -13 -53 -19
-75 -65 -240 -62 -787 6 -1165 22 -119 79 -342 120 -462 19 -56 33 -103 31
-104 -1 -1 -45 16 -97 38 -138 57 -428 153 -571 188 -609 147 -1161 105 -1648
-126 -499 -237 -908 -634 -1377 -1339 -532 -797 -1036 -1733 -1436 -2665 -672
-1564 -1133 -3273 -1382 -5125 -101 -747 -133 -1226 -98 -1460 8 -49 18 -115
22 -145 45 -301 100 -474 220 -685 53 -95 115 -168 322 -385 73 -76 246 -181
438 -267 218 -97 501 -145 723 -124 537 53 842 175 1832 729 2377 1331 4328
2989 5802 4932 752 991 1041 1554 1125 2190 16 125 16 442 -1 555 -67 460
-265 894 -594 1303 -55 68 -98 125 -96 126 2 2 47 18 99 37 292 102 693 366
845 555 22 27 60 69 85 94 144 146 290 351 388 543 117 228 146 411 97 602
-64 245 -235 441 -486 559 -168 80 -417 114 -631 87 l-57 -7 6 26 c6 26 38
119 53 155 25 61 61 186 80 280 6 33 17 80 23 105 16 60 16 412 0 465 -6 22
-17 65 -23 95 -39 183 -125 342 -264 488 -244 257 -556 342 -871 238 -71 -24
-128 -53 -222 -113 -119 -76 -202 -151 -296 -268 -26 -33 -54 -67 -60 -75 -24
-30 -55 -76 -77 -115 -48 -83 -80 -147 -80 -159 -1 -11 -34 -56 -43 -56 -5 0
-42 76 -57 120 -106 305 -377 697 -595 863 -83 63 -224 132 -319 157 -95 24
-262 26 -346 4z m271 -450 c224 -70 495 -449 670 -937 21 -59 64 -192 94 -295
70 -239 139 -435 167 -472 31 -43 87 -78 134 -86 50 -7 111 17 168 66 63 56
76 93 87 255 12 178 30 286 70 413 35 113 134 317 184 382 19 25 47 63 61 85
61 92 224 230 317 269 161 67 332 19 475 -133 190 -200 212 -549 61 -953 -68
-182 -193 -434 -281 -565 -15 -23 -28 -44 -28 -47 0 -3 -13 -27 -30 -53 -53
-84 -38 -202 33 -250 47 -33 119 -31 183 3 127 68 384 133 587 147 83 6 230
-11 298 -34 62 -21 152 -72 189 -107 38 -35 79 -95 73 -105 -3 -5 -1 -7 4 -4
6 4 20 -16 33 -46 34 -77 31 -170 -9 -273 -29 -74 -131 -254 -170 -299 -9 -11
-30 -40 -46 -64 -16 -24 -35 -45 -42 -48 -7 -3 -13 -10 -13 -17 0 -6 -30 -44
-66 -83 -55 -61 -104 -107 -254 -237 -58 -50 -131 -97 -141 -90 -7 4 -9 3 -6
-3 3 -5 -17 -24 -45 -42 -69 -46 -293 -153 -322 -155 -13 0 -22 -4 -21 -7 5
-7 -107 -42 -206 -65 l-76 -17 -159 143 c-88 78 -166 150 -174 159 -8 9 -25
23 -37 32 -12 8 -55 45 -95 81 -367 332 -931 727 -1483 1040 -82 47 -182 101
-221 121 l-70 35 -41 89 c-172 371 -267 717 -304 1107 -15 163 -6 582 14 681
32 152 64 220 142 304 85 92 172 114 296 75z m-1801 -2115 c137 -13 318 -50
466 -95 376 -113 980 -380 1379 -608 236 -136 573 -347 579 -363 3 -8 1 -11
-4 -8 -5 3 -19 1 -31 -6 -15 -8 -19 -8 -15 0 4 6 2 11 -5 11 -7 0 -43 20 -80
45 -37 25 -69 45 -71 45 -3 0 -43 25 -89 55 -47 31 -90 53 -99 50 -8 -4 -11
-3 -7 1 10 10 -31 36 -45 28 -6 -4 -8 -3 -5 3 7 10 -293 183 -317 183 -8 0
-18 5 -22 11 -8 13 -453 229 -472 229 -4 0 -20 7 -37 16 -16 8 -38 13 -47 11
-10 -3 -16 -2 -13 3 9 15 -337 145 -362 136 -8 -3 -12 -2 -9 3 5 7 -242 82
-314 95 -14 3 -56 12 -95 20 -38 8 -90 16 -115 18 -25 2 -47 6 -50 10 -3 3
-68 12 -145 18 -157 14 -349 8 -465 -14 -121 -24 -212 -46 -234 -59 -21 -11
-27 -13 -59 -15 -10 -1 -15 -6 -12 -12 3 -5 0 -7 -8 -5 -11 5 -181 -65 -196
-80 -2 -3 2 -13 10 -22 12 -17 12 -17 -6 -1 -17 16 -21 15 -69 -11 -94 -51
-126 -73 -120 -82 3 -5 -2 -6 -10 -3 -9 3 -16 1 -16 -5 0 -6 -12 -16 -26 -22
-25 -9 -25 -11 -10 -22 16 -12 16 -13 -3 -13 -11 0 -17 4 -15 8 11 18 -14 6
-49 -23 -20 -17 -35 -34 -32 -39 3 -5 0 -12 -6 -16 -8 -4 -9 -3 -5 4 4 7 4 12
1 12 -22 0 -236 -200 -228 -213 3 -5 2 -7 -4 -4 -14 9 -146 -140 -137 -154 4
-7 3 -9 -3 -6 -6 4 -28 -14 -49 -40 -21 -26 -33 -43 -25 -39 10 7 11 4 2 -13
-12 -22 -27 -30 -16 -8 4 6 -4 0 -17 -14 -59 -67 -90 -113 -83 -122 3 -4 2 -5
-1 -3 -6 5 -54 -47 -54 -59 0 -3 6 -3 13 1 7 4 9 3 4 -2 -5 -5 -12 -9 -17 -9
-9 0 -70 -80 -70 -92 0 -4 -8 -16 -18 -27 -20 -22 -183 -281 -224 -354 -26
-47 -49 -87 -91 -156 -15 -26 -25 -51 -21 -58 4 -6 3 -8 -3 -5 -6 4 -18 -8
-27 -26 -9 -17 -21 -39 -26 -47 -33 -53 -92 -156 -126 -220 -22 -41 -47 -86
-56 -100 -8 -14 -33 -59 -55 -100 -22 -41 -50 -92 -63 -112 -12 -21 -18 -43
-14 -49 5 -8 3 -9 -6 -4 -10 6 -12 4 -7 -9 4 -9 3 -15 -2 -12 -11 7 -23 -22
-14 -36 3 -6 2 -8 -4 -5 -12 8 -106 -171 -97 -185 4 -6 3 -8 -3 -5 -9 6 -303
-582 -303 -606 0 -7 -5 -18 -12 -25 -7 -7 -8 -12 -3 -12 4 0 1 -8 -7 -17 -8
-10 -38 -72 -67 -138 -29 -66 -62 -137 -72 -158 -12 -23 -17 -48 -14 -60 4
-14 3 -17 -2 -10 -11 15 -86 -153 -76 -169 3 -6 2 -8 -4 -5 -12 8 -37 -59 -27
-74 4 -7 3 -9 -3 -6 -13 8 -77 -148 -67 -164 4 -8 3 -9 -4 -5 -11 7 -14 3 -16
-26 -1 -7 -4 -15 -8 -18 -15 -12 -189 -471 -182 -482 4 -6 3 -8 -3 -5 -12 7
-35 -62 -26 -76 3 -6 2 -7 -4 -4 -12 8 -37 -69 -27 -85 4 -6 3 -8 -3 -5 -6 4
-13 -1 -16 -11 -3 -9 -30 -89 -61 -177 -31 -88 -54 -166 -51 -173 3 -7 1 -11
-4 -8 -5 3 -20 -29 -34 -71 -13 -43 -29 -78 -33 -79 -5 -1 -37 30 -70 70 l-62
72 73 209 c476 1381 1107 2661 1868 3793 303 452 575 760 851 966 135 100 204
142 338 205 305 144 617 189 1028 150z m540 -209 c8 -5 11 -10 5 -10 -5 0 -17
5 -25 10 -8 5 -10 10 -5 10 6 0 17 -5 25 -10z m-1495 -88 c-3 -3 -11 0 -18 7
-9 10 -8 11 6 5 10 -3 15 -9 12 -12z m1670 -2 c3 -6 -1 -7 -9 -4 -18 7 -21 14
-7 14 6 0 13 -4 16 -10z m-1815 -50 c-13 -11 -25 -20 -28 -20 -3 0 3 9 13 20
10 11 23 20 28 20 6 0 0 -9 -13 -20z m2780 -324 c0 -2 -7 -7 -16 -10 -8 -3
-12 -2 -9 4 6 10 25 14 25 6z m245 -144 c-3 -3 -11 0 -18 7 -9 10 -8 11 6 5
10 -3 15 -9 12 -12z m-2579 -106 c28 -13 55 -29 58 -35 4 -6 12 -8 18 -5 6 4
8 2 4 -4 -3 -6 4 -18 16 -26 12 -9 19 -16 15 -16 -3 0 3 -18 15 -41 31 -60 29
-161 -4 -226 -14 -26 -28 -61 -32 -78 -7 -28 -38 -76 -79 -120 -17 -19 -17
-20 -1 -32 10 -7 13 -13 7 -13 -7 0 -15 5 -19 11 -4 7 -21 -4 -45 -27 -39 -38
-54 -68 -21 -43 15 13 16 12 4 -3 -8 -10 -19 -16 -25 -15 -7 1 -11 -4 -9 -11
1 -8 -2 -11 -7 -8 -5 4 -17 -4 -25 -16 -9 -12 -16 -19 -16 -14 0 5 -9 1 -19
-8 -11 -10 -18 -28 -16 -41 1 -14 -2 -22 -7 -19 -5 3 -7 13 -3 22 5 14 4 14
-12 0 -10 -8 -30 -26 -45 -38 -23 -19 -26 -26 -15 -39 10 -14 10 -14 -4 -3
-13 10 -18 10 -28 -1 -6 -8 -7 -18 -3 -22 4 -5 2 -5 -5 -1 -15 8 -135 -102
-126 -117 3 -5 2 -7 -4 -4 -10 6 -69 -48 -75 -68 -2 -5 -6 -9 -10 -8 -11 4
-108 -108 -102 -118 3 -5 0 -8 -8 -7 -7 2 -12 -3 -10 -10 1 -8 -2 -11 -7 -8
-9 6 -47 -44 -43 -57 1 -5 -2 -6 -7 -2 -12 7 -33 -29 -23 -40 4 -3 2 -5 -4 -3
-10 3 -74 -63 -74 -77 0 -4 -15 -24 -32 -45 -47 -54 -101 -133 -98 -144 1 -5
-6 -13 -15 -18 -13 -8 -14 -13 -4 -24 9 -12 9 -13 -3 -9 -9 4 -21 -4 -32 -19
-18 -29 -21 -40 -6 -31 6 3 7 -1 3 -10 -4 -11 -8 -13 -13 -5 -4 6 -22 -14 -44
-49 -31 -52 -35 -64 -26 -83 10 -21 10 -21 -3 -5 -14 17 -16 16 -37 -13 -12
-16 -18 -30 -13 -30 4 0 1 -6 -8 -13 -24 -19 -73 -100 -71 -120 0 -9 -3 -15
-8 -12 -5 3 -25 -25 -46 -62 -20 -38 -49 -87 -65 -111 -16 -24 -27 -48 -23
-53 3 -5 0 -8 -8 -7 -7 2 -12 -3 -10 -10 1 -6 -4 -11 -10 -10 -7 2 -12 -3 -10
-9 1 -7 -3 -13 -9 -13 -5 0 -7 -6 -3 -12 4 -7 4 -10 -1 -6 -11 11 -36 -12 -28
-25 3 -5 2 -7 -4 -4 -13 8 -55 -22 -48 -34 3 -5 -2 -6 -11 -2 -10 4 -15 2 -11
-3 3 -5 -2 -10 -11 -11 -16 -1 -54 -11 -112 -27 -19 -6 -21 -5 -10 3 12 8 7
11 -20 11 -19 0 -50 9 -68 20 -18 11 -38 18 -43 14 -5 -3 -8 0 -7 8 2 7 -5 13
-14 13 -9 0 -20 4 -25 9 -4 5 -3 6 5 2 16 -9 15 3 -1 23 -70 82 -63 330 14
509 11 25 17 54 14 66 -4 13 -3 16 2 9 6 -8 19 15 40 70 47 126 58 152 63 157
11 11 65 134 62 143 -1 4 3 5 9 1 9 -5 10 -2 6 10 -4 9 -3 15 2 12 11 -7 33
43 25 56 -4 6 -2 8 4 5 8 -6 61 71 81 117 2 4 23 37 47 73 25 35 41 69 38 75
-4 7 -3 8 4 4 6 -4 19 5 28 21 10 15 27 38 38 51 11 12 16 22 12 22 -4 0 6 14
23 31 28 28 43 58 23 45 -5 -3 -9 1 -9 9 0 11 4 12 13 4 9 -7 19 -2 36 22 13
17 22 36 20 43 -2 6 0 8 3 4 9 -9 86 83 79 94 -3 5 0 7 8 6 7 -2 12 3 10 10
-1 8 2 11 7 8 13 -8 34 21 25 35 -4 7 -3 9 3 6 12 -7 44 28 35 39 -4 4 -2 4 4
1 6 -4 34 19 61 51 28 31 96 102 151 156 56 55 100 104 99 110 -1 6 6 10 17 8
14 -3 17 1 12 13 -3 9 -2 14 4 10 12 -7 76 44 73 57 -2 4 3 7 10 6 6 -2 11 2
10 9 -2 8 4 10 14 6 10 -4 14 -2 10 4 -3 5 -1 10 6 10 20 0 67 34 61 44 -3 5
2 6 10 3 12 -5 85 29 121 55 14 11 93 30 140 34 125 11 180 7 231 -17z m2910
-92 c18 -14 18 -15 -4 -4 -12 6 -28 8 -34 4 -7 -4 -8 -3 -4 4 10 16 18 15 42
-4z m141 -90 c-3 -3 -12 -4 -19 -1 -8 3 -5 6 6 6 11 1 17 -2 13 -5z m-3897
-178 c0 -2 -8 -10 -17 -17 -16 -13 -17 -12 -4 4 13 16 21 21 21 13z m-110
-107 c-14 -25 -17 -24 -14 4 3 30 3 29 14 22 7 -4 7 -13 0 -26z m-162 -164
c-3 -3 -9 2 -12 12 -6 14 -5 15 5 6 7 -7 10 -15 7 -18z m1015 -100 c4 -8 3
-16 -1 -19 -4 -3 -9 4 -9 15 -2 23 3 25 10 4z m-1123 -59 c0 -2 -8 -10 -17
-17 -16 -13 -17 -12 -4 4 13 16 21 21 21 13z m-489 -199 c-10 -9 -11 -8 -5 6
3 10 9 15 12 12 3 -3 0 -11 -7 -18z m-398 -682 c-3 -9 -8 -14 -10 -11 -3 3 -2
9 2 15 9 16 15 13 8 -4z m287 -650 c0 -5 -5 -3 -10 5 -5 8 -10 20 -10 25 0 6
5 3 10 -5 5 -8 10 -19 10 -25z m1 -248 c4 -5 12 -6 19 -2 8 5 11 4 7 -2 -7
-12 41 -38 63 -34 13 2 13 1 0 -8 -12 -9 -12 -11 2 -16 10 -4 31 -34 48 -68
26 -53 30 -70 30 -146 0 -85 -28 -216 -65 -305 -9 -20 -13 -41 -10 -47 4 -5 3
-8 -2 -7 -5 2 -25 -16 -46 -38 l-37 -42 22 -17 c23 -16 22 -16 -3 -1 -23 13
-29 13 -48 0 -12 -9 -19 -20 -16 -25 3 -5 -2 -6 -11 -2 -13 5 -15 3 -9 -7 5
-8 4 -11 -2 -7 -5 3 -32 -1 -59 -9 -34 -11 -67 -13 -109 -9 -33 4 -71 7 -84 7
-16 0 -20 3 -11 8 9 6 8 9 -7 14 -29 9 -100 82 -122 124 -37 73 -51 233 -23
276 4 6 7 13 7 16 5 30 102 206 134 242 25 28 39 53 35 59 -4 8 -3 9 4 5 6 -4
25 3 42 15 54 40 230 59 251 26z m-393 -132 c-3 -3 -9 2 -12 12 -6 14 -5 15 5
6 7 -7 10 -15 7 -18z m249 -681 c-3 -3 -12 -4 -19 -1 -8 3 -5 6 6 6 11 1 17
-2 13 -5z m-1312 -1226 c5 4 5 1 1 -6 -6 -10 -11 -10 -22 -1 -8 6 -14 14 -14
16 0 3 6 0 13 -6 8 -6 18 -7 22 -3z m61 -74 c2 -12 -1 -13 -12 -3 -7 6 -11 16
-8 21 7 11 17 3 20 -18z m48 -22 c3 -5 -1 -9 -9 -9 -8 0 -12 4 -9 9 3 4 7 8 9
8 2 0 6 -4 9 -8z m-130 -299 c175 -140 438 -291 565 -324 28 -7 51 -16 51 -20
0 -20 -61 -27 -111 -14 -29 8 -57 11 -62 8 -6 -4 -7 -1 -2 6 5 9 1 12 -11 10
-11 -2 -30 4 -44 13 -14 9 -32 18 -40 20 -8 2 -19 6 -25 11 -31 23 -149 75
-158 70 -6 -3 -7 -2 -4 3 3 6 -15 23 -41 39 -26 16 -75 51 -110 77 -34 27 -67
46 -73 43 -5 -4 -8 -3 -7 2 2 5 -14 26 -35 47 -29 28 -42 35 -50 27 -6 -6 -15
-11 -21 -11 -5 0 -2 6 8 13 16 12 16 14 -2 30 -18 17 -19 15 -36 -44 -9 -33
-13 -65 -10 -71 4 -6 3 -8 -2 -5 -5 3 -23 -39 -39 -93 -24 -82 -31 -97 -43
-88 -16 14 -112 155 -112 166 0 4 25 91 56 194 l57 186 110 -115 c61 -63 147
-144 191 -180z m306 152 c0 -7 -30 -13 -34 -7 -3 4 4 9 15 9 10 1 19 0 19 -2z
m140 -85 c-8 -5 -19 -10 -25 -10 -5 0 -3 5 5 10 8 5 20 10 25 10 6 0 3 -5 -5
-10z m211 -167 c13 -16 12 -17 -3 -4 -17 13 -22 21 -14 21 2 0 10 -8 17 -17z
m59 -17 c-7 -7 -13 -7 -20 0 -6 6 -3 10 10 10 13 0 16 -4 10 -10z m-833 -212
c-3 -3 -12 -4 -19 -1 -8 3 -5 6 6 6 11 1 17 -2 13 -5z m-30 -21 c-4 -3 3 -18
15 -32 l23 -26 -27 24 c-24 21 -29 41 -11 41 4 0 3 -3 0 -7z m67 -48 c-4 -8
-11 -15 -16 -15 -6 0 -5 6 2 15 7 8 14 15 16 15 2 0 1 -7 -2 -15z m-355 -73
c99 -88 181 -140 264 -168 79 -26 100 -54 43 -54 -17 0 -42 -3 -56 -5 -14 -3
-19 -2 -12 1 8 4 -9 19 -44 40 -61 37 -69 40 -58 22 4 -7 3 -8 -5 -4 -6 4 -9
11 -6 16 9 14 -13 22 -33 11 -14 -7 -19 -6 -19 4 0 8 7 11 16 7 12 -4 12 0 -3
17 -17 19 -21 20 -29 6 -5 -9 -6 -22 -3 -30 3 -8 1 -15 -3 -17 -7 -3 -99 -345
-106 -393 -1 -11 -5 -27 -8 -35 -15 -40 -28 -120 -21 -131 4 -7 3 -9 -3 -6 -6
4 -13 -5 -16 -21 -4 -15 -24 -107 -46 -204 -74 -325 -169 -811 -215 -1103 -9
-55 -25 -158 -36 -230 -20 -124 -98 -734 -98 -765 0 -8 -7 -73 -16 -145 -44
-345 -59 -758 -36 -970 20 -182 76 -396 132 -509 16 -32 27 -60 25 -63 -12
-11 -128 146 -175 235 -151 288 -180 696 -102 1396 114 1014 290 1988 516
2856 31 118 61 234 67 258 6 23 12 42 15 42 2 0 34 -26 71 -58z m381 54 c0 -2
-7 -7 -16 -10 -8 -3 -12 -2 -9 4 6 10 25 14 25 6z m85 -84 c-3 -3 -11 0 -18 7
-9 10 -8 11 6 5 10 -3 15 -9 12 -12z m25 -2 c-6 -11 -13 -20 -16 -20 -2 0 0 9
6 20 6 11 13 20 16 20 2 0 0 -9 -6 -20z m-35 -160 c-3 -5 -12 -10 -18 -10 -7
0 -6 4 3 10 19 12 23 12 15 0z m-240 -28 c-3 -3 -11 0 -18 7 -9 10 -8 11 6 5
10 -3 15 -9 12 -12z m1734 -3385 c-2 -1 -13 -9 -24 -17 -19 -14 -19 -14 -6 3
7 9 18 17 24 17 6 0 8 -1 6 -3z m-69 -50 c0 -2 -9 -12 -20 -22 -24 -21 -27
-14 -4 9 15 15 24 20 24 13z"/>
</g>
</svg>
